<svg xmlns="http://www.w3.org/2000/svg" width="888.6513061523438" height="249.87144470214844" viewBox="-434.4474182128906 -33.09115219116211 888.6513061523438 249.87144470214844"><title>Neo4j Graph Visualization</title><desc>Created using Neo4j (http://www.neo4j.com/)</desc><g class="layer relationships"><g class="relationship" transform="translate(425.20390244130544 64.42619611462005) rotate(536.4572919186619)"><path class="outline" fill="#A5ABB6" stroke="none" d="M 24.018736134675446,-6.953439040707552 L 24.277555179777966,-5.987513214418485 A 599.2969694159659 599.2969694159659 0 0 1 158.76870979550364,-26.05327923774496 L 158.73430562562868,-27.052687239061356 A 600.2969694159659 600.2969694159659 0 0 0 24.018736134675446,-6.953439040707552 Z M 194.10978491471957,-27.227491395621314 L 194.08525911977478,-26.2277921981713 A 599.2969694159659 599.2969694159659 0 0 1 328.7681468977234,-7.492120986111123 L 328.020365096792,-4.586811643167455 L 335.67183233141384,-6.231515007761762 L 329.76518929896525,-11.365866776702681 L 329.01740749803383,-8.460557433759012 A 600.2969694159659 600.2969694159659 0 0 0 194.10978491471957,-27.227491395621314"/><text text-anchor="middle" pointer-events="none" font-size="8px" fill="#000000" x="176.42322799098244" y="-23.900739657226268" transform="rotate(180 176.42322799098244 -26.900739657226268)" font-family="sans-serif">followed</text></g><g class="relationship" transform="translate(425.20390244130544 64.42619611462005) rotate(526.977069931912)"><path class="outline" fill="#A5ABB6" stroke="none" d="M 24.018736134675446,6.953439040707552 L 24.277555179777966,5.987513214418485 A 605.2997587254603 605.2997587254603 0 0 0 160.317519626328,26.261175263169093 L 160.2834486708877,27.260594679628184 A 606.2997587254603 606.2997587254603 0 0 1 24.018736134675446,6.953439040707552 Z M 195.6587441779522,27.433933373663535 L 195.63446891933262,26.434228061174508 A 605.2997587254603 605.2997587254603 0 0 0 331.86657772955823,7.494697216818286 L 331.1185553745842,4.589449799392508 L 338.77015876271406,6.2335196247832565 L 332.86394086952356,11.368360440052658 L 332.11591851454955,8.46311302262688 A 606.2997587254603 606.2997587254603 0 0 1 195.6587441779522,27.433933373663535"/><text text-anchor="middle" pointer-events="none" font-size="8px" fill="#000000" x="177.97228190006751" y="30.105329866579268" transform="rotate(180 177.97228190006751 27.105329866579268)" font-family="sans-serif">followed</text></g><g class="relationship" transform="translate(425.20390244130544 64.42619611462005) rotate(536.3980503184025)"><path class="outline" fill="#A5ABB6" stroke="none" d="M 24.018736134675446,6.953439040707552 L 24.277555179777966,5.987513214418485 A 1513.1439228570364 1513.1439228570364 0 0 0 394.9714957287271,57.40179167766678 L 394.95765928901284,58.40169594955296 A 1514.1439228570364 1514.1439228570364 0 0 1 24.018736134675446,6.953439040707552 Z M 430.3200132628307,58.4780520982149 L 430.310495017802,57.478097397735155 A 1513.1439228570364 1513.1439228570364 0 0 0 801.2230104517187,7.665132377693466 L 800.4590745479987,4.764028805773373 L 808.1195747701522,6.366132531000168 L 802.2415916566787,11.533270473586922 L 801.4776557529588,8.63216690166683 A 1514.1439228570364 1514.1439228570364 0 0 1 430.3200132628307,58.4780520982149"/><text text-anchor="middle" pointer-events="none" font-size="8px" fill="#000000" x="412.6396929808631" y="61.04311352827085" transform="rotate(180 412.6396929808631 58.04311352827085)" font-family="sans-serif">followed</text></g><g class="relationship" transform="translate(425.20390244130544 64.42619611462005) rotate(180.34319179522754)"><path class="outline" fill="#A5ABB6" stroke="none" d="M 24.018736134675446,6.953439040707552 L 24.277555179777966,5.987513214418485 A 703.7705719711628 703.7705719711628 0 0 0 185.7349120094729,29.663662740128302 L 185.7055105661571,30.66323042424517 A 704.7705719711628 704.7705719711628 0 0 1 24.018736134675446,6.953439040707552 Z M 221.078128973131,30.815605399906303 L 221.05734015622062,29.815821510712453 A 703.7705719711628 703.7705719711628 0 0 0 382.71268115272755,7.5315477263069655 L 381.9612179390682,4.62718840994876 L 389.6147634265066,6.262193447161431 L 383.7146321042734,11.404026814784574 L 382.96316889061404,8.499667498426367 A 704.7705719711628 704.7705719711628 0 0 1 221.078128973131,30.815605399906303"/><text text-anchor="middle" pointer-events="none" font-size="8px" fill="#000000" x="203.39301747768025" y="33.46137967683899" transform="rotate(180 203.39301747768025 30.461379676838988)" font-family="sans-serif">followed</text></g><g class="relationship" transform="translate(425.20390244130544 64.42619611462005) rotate(536.0396505819813)"><path class="outline" fill="#A5ABB6" stroke="none" d="M 24.018736134675446,-6.953439040707552 L 24.277555179777966,-5.987513214418485 A 800.2398878621104 800.2398878621104 0 0 1 210.65044828412292,-32.98610447973226 L 210.6245255191624,-33.98576842839543 A 801.2398878621104 801.2398878621104 0 0 0 24.018736134675446,-6.953439040707552 Z M 245.9950272911554,-34.12199357486088 L 245.97680534701217,-33.12215960826859 A 800.2398878621104 800.2398878621104 0 0 1 432.5521299918998,-7.559932630756874 L 431.79801642832786,-4.656260346693669 L 439.4530509153093,-6.284279696432879 L 433.55761474332905,-11.43149567617448 L 432.8035011797571,-8.527823392111275 A 801.2398878621104 801.2398878621104 0 0 0 245.9950272911554,-34.12199357486088"/><text text-anchor="middle" pointer-events="none" font-size="8px" fill="#000000" x="228.3109502799233" y="-30.749087499754523" transform="rotate(180 228.3109502799233 -33.74908749975452)" font-family="sans-serif">followed</text></g><g class="relationship" transform="translate(425.20390244130544 64.42619611462005) rotate(532.0908850556068)"><path class="outline" fill="#A5ABB6" stroke="none" d="M 24.018736134675446,-6.953439040707552 L 24.277555179777966,-5.987513214418485 A 700.4611428566362 700.4611428566362 0 0 1 184.8803999190937,-29.549518598466875 L 184.85086246423663,-30.549082272657074 A 701.4611428566362 701.4611428566362 0 0 0 24.018736134675446,-6.953439040707552 Z M 220.2235615184246,-30.702079322572672 L 220.20267180505658,-29.702297536443552 A 700.4611428566362 700.4611428566362 0 0 1 381.0033285323217,-7.530454307723466 L 380.25196741393825,-4.626068577524809 L 387.9054554225158,-6.2613426531952125 L 382.00514335683295,-11.402968614655009 L 381.2537822384495,-8.498582884456352 A 701.4611428566362 701.4611428566362 0 0 0 220.2235615184246,-30.702079322572672"/><text text-anchor="middle" pointer-events="none" font-size="8px" fill="#000000" x="202.53841005089734" y="-27.348591139799964" transform="rotate(180 202.53841005089734 -30.348591139799964)" font-family="sans-serif">followed</text></g><g class="relationship" transform="translate(425.20390244130544 64.42619611462005) rotate(528.6765840485392)"><path class="outline" fill="#A5ABB6" stroke="none" d="M 24.018736134675446,6.953439040707552 L 24.277555179777966,5.987513214418485 A 804.2565864096414 804.2565864096414 0 0 0 211.688104312221,33.12426357641834 L 211.6623085986016,34.12393081163157 A 805.2565864096414 805.2565864096414 0 0 1 24.018736134675446,6.953439040707552 Z M 247.03273110652205,34.259557296312664 L 247.01460240759405,33.25972163467861 A 804.2565864096414 804.2565864096414 0 0 0 434.6277471238538,7.56098477838307 L 433.8735353201255,4.657338010073098 L 441.52862488386506,6.2850983644021 L 435.63336286215815,11.432513802796368 L 434.87915105842984,8.528867034486394 A 805.2565864096414 805.2565864096414 0 0 1 247.03273110652205,34.259557296312664"/><text text-anchor="middle" pointer-events="none" font-size="8px" fill="#000000" x="229.34869230916954" y="36.88597571024491" transform="rotate(180 229.34869230916954 33.88597571024491)" font-family="sans-serif">followed</text></g><g class="relationship" transform="translate(425.20390244130544 64.42619611462005) rotate(185.80599838630906)"><path class="outline" fill="#A5ABB6" stroke="none" d="M 24.018736134675446,-6.953439040707552 L 24.277555179777966,-5.987513214418485 A 612.5654042637668 612.5654042637668 0 0 1 162.19227593635492,-26.512723705259532 L 162.1585997409736,-27.512156501331674 A 613.5654042637668 613.5654042637668 0 0 0 24.018736134675446,-6.953439040707552 Z M 197.53367626471936,-27.683753869208545 L 197.50969752017426,-26.684041400640695 A 612.5654042637668 612.5654042637668 0 0 1 335.6170507296634,-7.49775837011778 L 334.86874254171175,-4.592584561918947 L 342.520507646786,-6.235901566263722 L 336.61479498026563,-11.371323447716223 L 335.866486792314,-8.466149639517392 A 613.5654042637668 613.5654042637668 0 0 0 197.53367626471936,-27.683753869208545"/><text text-anchor="middle" pointer-events="none" font-size="8px" fill="#000000" x="179.84732642247334" y="-24.35296054600269" transform="rotate(180 179.84732642247334 -27.35296054600269)" font-family="sans-serif">followed</text></g><g class="relationship" transform="translate(425.20390244130544 64.42619611462005) rotate(523.876045030669)"><path class="outline" fill="#A5ABB6" stroke="none" d="M 24.018736134675446,-6.953439040707552 L 24.277555179777966,-5.987513214418485 A 713.4949895932243 713.4949895932243 0 0 1 188.2459050641223,-29.998992343314967 L 188.216896111979,-30.998571495106148 A 714.4949895932243 714.4949895932243 0 0 0 24.018736134675446,-6.953439040707552 Z M 223.58928090037335,-31.14914742612507 L 223.56878301859396,-30.149357529775557 A 713.4949895932243 713.4949895932243 0 0 1 387.7356146420679,-7.534709876934914 L 386.9838561706919,-4.630426970482022 L 394.6375678356873,-6.264653928133132 L 388.7379592705692,-11.407087085538771 L 387.9862007991932,-8.502804179085878 A 714.4949895932243 714.4949895932243 0 0 0 223.58928090037335,-31.14914742612507"/><text text-anchor="middle" pointer-events="none" font-size="8px" fill="#000000" x="205.90428495752394" y="-27.792796363955517" transform="rotate(180 205.90428495752394 -30.792796363955517)" font-family="sans-serif">followed</text></g><g class="relationship" transform="translate(425.20390244130544 64.42619611462005) rotate(188.41837182218882)"><path class="outline" fill="#A5ABB6" stroke="none" d="M 24.018736134675446,-6.953439040707552 L 24.277555179777966,-5.987513214418485 A 723.1002960567647 723.1002960567647 0 0 1 190.72627996119215,-30.33011341251222 L 190.69764852033913,-31.329703448774353 A 724.1002960567647 724.1002960567647 0 0 0 24.018736134675446,-6.953439040707552 Z M 226.06980735582624,-31.478543499417697 L 226.04958899088837,-30.478747911450228 A 723.1002960567647 723.1002960567647 0 0 1 392.69727509489235,-7.53776096789122 L 391.94523173618467,-4.633551817946325 L 399.59910367121506,-6.267027989230749 L 393.69999957316924,-11.410039834484413 L 392.94795621446156,-8.505830684539518 A 724.1002960567647 724.1002960567647 0 0 0 226.06980735582624,-31.478543499417697"/><text text-anchor="middle" pointer-events="none" font-size="8px" fill="#000000" x="208.3849228401476" y="-28.120152422955698" transform="rotate(180 208.3849228401476 -31.120152422955698)" font-family="sans-serif">followed</text></g><g class="relationship" transform="translate(425.20390244130544 64.42619611462005) rotate(183.3669432309647)"><path class="outline" fill="#A5ABB6" stroke="none" d="M 24.018736134675446,-6.953439040707552 L 24.277555179777966,-5.987513214418485 A 810.2184611533722 810.2184611533722 0 0 1 213.22830051644638,-33.329306464924684 L 213.20269109861857,-34.32897849000017 A 811.2184611533722 811.2184611533722 0 0 0 24.018736134675446,-6.953439040707552 Z M 248.5729971328394,-34.463726017617205 L 248.55500509467478,-33.46388788743684 A 810.2184611533722 810.2184611533722 0 0 1 437.70858676060203,-7.5625295372011445 L 436.9542307211803,-4.6589202374178615 L 444.60940113333334,-6.286300328514332 L 438.71439481316435,-11.434008603578855 L 437.9600387737426,-8.530399303795573 A 811.2184611533722 811.2184611533722 0 0 0 248.5729971328394,-34.463726017617205"/><text text-anchor="middle" pointer-events="none" font-size="8px" fill="#000000" x="230.88901442219236" y="-31.0891547972343" transform="rotate(180 230.88901442219236 -34.0891547972343)" font-family="sans-serif">followed</text></g><g class="relationship" transform="translate(11.393568171548923 61.94751424390222) rotate(360.34319179522754)"><path class="outline" fill="#A5ABB6" stroke="none" d="M 24.018736134675446,6.953439040707552 L 24.277555179777966,5.987513214418485 A 703.7705719711628 703.7705719711628 0 0 0 185.7349120094729,29.663662740128302 L 185.7055105661571,30.66323042424517 A 704.7705719711628 704.7705719711628 0 0 1 24.018736134675446,6.953439040707552 Z M 221.078128973131,30.815605399906303 L 221.05734015622062,29.815821510712453 A 703.7705719711628 703.7705719711628 0 0 0 382.71268115272755,7.5315477263069655 L 381.9612179390682,4.62718840994876 L 389.6147634265066,6.262193447161431 L 383.7146321042734,11.404026814784574 L 382.96316889061404,8.499667498426367 A 704.7705719711628 704.7705719711628 0 0 1 221.078128973131,30.815605399906303"/><text text-anchor="middle" pointer-events="none" font-size="8px" fill="#000000" x="203.39301747768025" y="33.46137967683899" font-family="sans-serif">followed</text></g><g class="relationship" transform="translate(11.393568171548923 61.94751424390222) rotate(532.5149904327355)"><path class="outline" fill="#A5ABB6" stroke="none" d="M 24.018736134675446,6.953439040707552 L 24.277555179777966,5.987513214418485 A 716.5609926285225 716.5609926285225 0 0 0 189.0376232630983,30.10469655563486 L 189.0087358913331,31.104279228430187 A 717.5609926285225 717.5609926285225 0 0 1 24.018736134675446,6.953439040707552 Z M 224.3810480436795,31.25429669548646 L 224.36064021612964,30.254504956885512 A 716.5609926285225 716.5609926285225 0 0 0 389.31934438466493,7.535691471761349 L 388.56749425948726,4.631432290959753 L 396.2212574940649,6.265417709813767 L 390.3218112182351,11.408037046163475 L 389.56996109305743,8.503777865361881 A 717.5609926285225 717.5609926285225 0 0 1 224.3810480436795,31.25429669548646"/><text text-anchor="middle" pointer-events="none" font-size="8px" fill="#000000" x="206.69608795641466" y="33.897288180014584" transform="rotate(180 206.69608795641466 30.897288180014584)" font-family="sans-serif">followed</text></g><g class="relationship" transform="translate(-405.44741168922553 116.71472479523469) rotate(352.51499043273554)"><path class="outline" fill="#A5ABB6" stroke="none" d="M 24.018736134675446,6.953439040707552 L 24.277555179777966,5.987513214418485 A 716.5609926285225 716.5609926285225 0 0 0 189.0376232630983,30.10469655563486 L 189.0087358913331,31.104279228430187 A 717.5609926285225 717.5609926285225 0 0 1 24.018736134675446,6.953439040707552 Z M 224.3810480436795,31.25429669548646 L 224.36064021612964,30.254504956885512 A 716.5609926285225 716.5609926285225 0 0 0 389.31934438466493,7.535691471761349 L 388.56749425948726,4.631432290959753 L 396.2212574940649,6.265417709813767 L 390.3218112182351,11.408037046163475 L 389.56996109305743,8.503777865361881 A 717.5609926285225 717.5609926285225 0 0 1 224.3810480436795,31.25429669548646"/><text text-anchor="middle" pointer-events="none" font-size="8px" fill="#000000" x="206.69608795641466" y="33.897288180014584" font-family="sans-serif">followed</text></g><g class="relationship" transform="translate(-405.44741168922553 116.71472479523469) rotate(356.8487915436706)"><path class="outline" fill="#A5ABB6" stroke="none" d="M 24.018736134675446,-6.953439040707552 L 24.277555179777966,-5.987513214418485 A 616.3151646998527 616.3151646998527 0 0 1 163.15987378850662,-26.64251130574371 L 163.1263977603593,-27.64195082644494 A 617.3151646998527 617.3151646998527 0 0 0 24.018736134675446,-6.953439040707552 Z M 198.50136272624025,-27.812663080295465 L 198.47753420885107,-26.81294701972672 A 616.3151646998527 616.3151646998527 0 0 1 337.55273315115807,-7.499314335874969 L 336.80427967620693,-4.594177954251281 L 344.4561269541052,-6.237112291259605 L 338.5506711177596,-11.372829511373219 L 337.80221764280844,-8.46769312974953 A 617.3151646998527 617.3151646998527 0 0 0 198.50136272624025,-27.812663080295465"/><text text-anchor="middle" pointer-events="none" font-size="8px" fill="#000000" x="180.81507002280506" y="-24.48076104136328" font-family="sans-serif">followed</text></g><g class="relationship" transform="translate(-405.44741168922553 116.71472479523469) rotate(360.59922924654484)"><path class="outline" fill="#A5ABB6" stroke="none" d="M 24.018736134675446,-6.953439040707552 L 24.277555179777966,-5.987513214418485 A 720.5543507326146 720.5543507326146 0 0 1 190.06882830233707,-30.242357319527173 L 190.04009776194482,-31.241944512346663 A 721.5543507326146 721.5543507326146 0 0 0 24.018736134675446,-6.953439040707552 Z M 225.41231603038236,-31.391240767533077 L 225.3920243200841,-30.3914466654835 A 720.5543507326146 720.5543507326146 0 0 1 391.3821327756915,-7.5369591180074105 L 390.6301642874941,-4.632730581414938 L 398.28399410910686,-6.26640406831212 L 392.38475742662143,-11.40926383346404 L 391.632788938424,-8.505035296871569 A 721.5543507326146 721.5543507326146 0 0 0 225.41231603038236,-31.391240767533077"/><text text-anchor="middle" pointer-events="none" font-size="8px" fill="#000000" x="207.72740223732524" y="-28.03338480982609" font-family="sans-serif">followed</text></g><g class="relationship" transform="translate(-405.44741168922553 116.71472479523469) rotate(365.97684567733864)"><path class="outline" fill="#A5ABB6" stroke="none" d="M 24.018736134675446,6.953439040707552 L 24.277555179777966,5.987513214418485 A 630.5933624731433 630.5933624731433 0 0 0 166.84453479146782,27.136500854421342 L 166.8117996034052,28.13596491453677 A 631.5933624731433 631.5933624731433 0 0 1 24.018736134675446,6.953439040707552 Z M 202.18634864150383,28.30338859231358 L 202.16307540525435,27.30365945075846 A 630.5933624731433 630.5933624731433 0 0 0 344.9238550765626,7.505095325116925 L 344.17486180763865,4.600098064686781 L 351.8270142290536,6.241610574366106 L 345.92251276846116,11.37842500569045 L 345.17351949953724,8.473427745260306 A 631.5933624731433 631.5933624731433 0 0 1 202.18634864150383,28.30338859231358"/><text text-anchor="middle" pointer-events="none" font-size="8px" fill="#000000" x="184.50026815344182" y="30.967392797689286" font-family="sans-serif">followed</text></g><g class="relationship" transform="translate(-405.44741168922553 116.71472479523469) rotate(356.3980503184025)"><path class="outline" fill="#A5ABB6" stroke="none" d="M 24.018736134675446,6.953439040707552 L 24.277555179777966,5.987513214418485 A 1513.1439228570364 1513.1439228570364 0 0 0 394.9714957287271,57.40179167766678 L 394.95765928901284,58.40169594955296 A 1514.1439228570364 1514.1439228570364 0 0 1 24.018736134675446,6.953439040707552 Z M 430.3200132628307,58.4780520982149 L 430.310495017802,57.478097397735155 A 1513.1439228570364 1513.1439228570364 0 0 0 801.2230104517187,7.665132377693466 L 800.4590745479987,4.764028805773373 L 808.1195747701522,6.366132531000168 L 802.2415916566787,11.533270473586922 L 801.4776557529588,8.63216690166683 A 1514.1439228570364 1514.1439228570364 0 0 1 430.3200132628307,58.4780520982149"/><text text-anchor="middle" pointer-events="none" font-size="8px" fill="#000000" x="412.6396929808631" y="61.04311352827085" font-family="sans-serif">followed</text></g><g class="relationship" transform="translate(-405.44741168922553 116.71472479523469) rotate(349.13704000537905)"><path class="outline" fill="#A5ABB6" stroke="none" d="M 24.018736134675446,-6.953439040707552 L 24.277555179777966,-5.987513214418485 A 820.8535871628382 820.8535871628382 0 0 1 215.97588158283327,-33.69500732275617 L 215.95059788362067,-34.6946876389344 A 821.8535871628382 821.8535871628382 0 0 0 24.018736134675446,-6.953439040707552 Z M 251.3206995662735,-34.82789514685817 L 251.30294627905064,-33.828052748880964 A 820.8535871628382 820.8535871628382 0 0 1 443.2045305258136,-7.565236085803151 L 442.44992177349803,-4.6616924524253545 L 450.1052337957477,-6.288406269296442 L 444.21067552890105,-11.436627596973546 L 443.4560667765855,-8.533083963595749 A 821.8535871628382 821.8535871628382 0 0 0 251.3206995662735,-34.82789514685817"/><text text-anchor="middle" pointer-events="none" font-size="8px" fill="#000000" x="233.63681506969536" y="-31.451596143833967" font-family="sans-serif">followed</text></g><g class="relationship" transform="translate(-405.44741168922553 116.71472479523469) rotate(368.5029048097412)"><path class="outline" fill="#A5ABB6" stroke="none" d="M 24.018736134675446,-6.953439040707552 L 24.277555179777966,-5.987513214418485 A 741.0015906769886 741.0015906769886 0 0 1 195.3492749158255,-30.946964458042203 L 195.3213213936698,-31.946573681988752 A 742.0015906769886 742.0015906769886 0 0 0 24.018736134675446,-6.953439040707552 Z M 230.6930713989451,-32.092282918739556 L 230.67335420118636,-31.09247732157951 A 741.0015906769886 741.0015906769886 0 0 1 401.9448989535035,-7.543263789347601 L 401.19234178496043,-4.639187738677705 L 408.8465025998238,-6.271309737858786 L 402.9483085115609,-11.415365190240795 L 402.19575134301783,-8.5112891395709 A 742.0015906769886 742.0015906769886 0 0 0 230.6930713989451,-32.092282918739556"/><text text-anchor="middle" pointer-events="none" font-size="8px" fill="#000000" x="213.0083876738217" y="-28.73023887517661" font-family="sans-serif">followed</text></g><g class="relationship" transform="translate(-405.44741168922553 116.71472479523469) rotate(344.4693415509836)"><path class="outline" fill="#A5ABB6" stroke="none" d="M 24.018736134675446,-6.953439040707552 L 24.277555179777966,-5.987513214418485 A 729.3095846830737 729.3095846830737 0 0 1 192.32977316056827,-30.544112792031115 L 192.30138056468599,-31.54370964101531 A 730.3095846830737 730.3095846830737 0 0 0 24.018736134675446,-6.953439040707552 Z M 227.67339581091932,-31.69144863649285 L 227.65335413182004,-30.69164949111473 A 729.3095846830737 729.3095846830737 0 0 1 395.90483736856834,-7.53969623199448 L 395.1526133100714,-4.635533880159027 L 402.80658686593387,-6.26853382080758 L 396.90780277989757,-11.411912701108417 L 396.1555787214006,-8.507750349272964 A 730.3095846830737 730.3095846830737 0 0 0 227.67339581091932,-31.69144863649285"/><text text-anchor="middle" pointer-events="none" font-size="8px" fill="#000000" x="209.98858193659566" y="-28.331769015498594" font-family="sans-serif">followed</text></g><g class="relationship" transform="translate(-405.44741168922553 116.71472479523469) rotate(347.5868927570983)"><path class="outline" fill="#A5ABB6" stroke="none" d="M 24.018736134675446,-6.953439040707552 L 24.277555179777966,-5.987513214418485 A 621.4871563875861 621.4871563875861 0 0 1 164.49451834026482,-26.821487185234673 L 164.46131451780906,-27.820935786301447 A 622.4871563875861 622.4871563875861 0 0 0 24.018736134675446,-6.953439040707552 Z M 199.8361272160681,-27.99044204669815 L 199.81250285767663,-26.99072114079968 A 621.4871563875861 621.4871563875861 0 0 1 340.2226838648252,-7.501434368171309 L 339.4740324338279,-4.5963489933732244 L 347.1259916445203,-6.238761924977346 L 341.2208857728216,-11.374881534568756 L 340.4722343418243,-8.46979615977067 A 622.4871563875861 622.4871563875861 0 0 0 199.8361272160681,-27.99044204669815"/><text text-anchor="middle" pointer-events="none" font-size="8px" fill="#000000" x="182.14991235180645" y="-24.657034064839877" font-family="sans-serif">followed</text></g><g class="relationship" transform="translate(-405.44741168922553 116.71472479523469) rotate(363.53959525561277)"><path class="outline" fill="#A5ABB6" stroke="none" d="M 24.018736134675446,6.953439040707552 L 24.277555179777966,5.987513214418485 A 827.8531897938592 827.8531897938592 0 0 0 217.78428970901882,33.93565162372329 L 217.75921589424806,34.93533722620691 A 828.8531897938592 828.8531897938592 0 0 1 24.018736134675446,6.953439040707552 Z M 253.12918542026924,35.06755018696492 L 253.11158585215202,34.06770507135843 A 827.8531897938592 827.8531897938592 0 0 0 446.8218502408461,7.566983964607783 L 446.06707828769794,4.66348275077285 L 453.7224817319856,6.289766276234589 L 447.82821284504365,11.438318916387693 L 447.0734408918955,8.534817702552761 A 828.8531897938592 828.8531897938592 0 0 1 253.12918542026924,35.06755018696492"/><text text-anchor="middle" pointer-events="none" font-size="8px" fill="#000000" x="235.4453643124079" y="37.690139527851215" font-family="sans-serif">followed</text></g><g class="relationship" transform="translate(-405.44741168922553 116.71472479523469) rotate(356.35292025945716)"><path class="outline" fill="#A5ABB6" stroke="none" d="M 24.018736134675446,-6.953439040707552 L 24.277555179777966,-5.987513214418485 A 817.1989871137449 817.1989871137449 0 0 1 215.03170371947158,-33.569349170048326 L 215.00630903189722,-34.56902667296765 A 818.1989871137449 818.1989871137449 0 0 0 24.018736134675446,-6.953439040707552 Z M 250.37648044853856,-34.70275940719978 L 250.3586458337382,-33.70291845659062 A 817.1989871137449 817.1989871137449 0 0 1 441.31590850108086,-7.564313015934162 L 440.56138593659375,-4.660746984365429 L 448.2166496688224,-6.287688037392372 L 442.32193858706364,-11.43573439135914 L 441.56741602257654,-8.532168359790406 A 818.1989871137449 818.1989871137449 0 0 0 250.37648044853856,-34.70275940719978"/><text text-anchor="middle" pointer-events="none" font-size="8px" fill="#000000" x="232.69256246388284" y="-31.327048788650245" font-family="sans-serif">followed</text></g><g class="relationship" transform="translate(-37.33926003777277 96.44871995051179) rotate(356.0396505819813)"><path class="outline" fill="#A5ABB6" stroke="none" d="M 24.018736134675446,-6.953439040707552 L 24.277555179777966,-5.987513214418485 A 800.2398878621104 800.2398878621104 0 0 1 210.65044828412292,-32.98610447973226 L 210.6245255191624,-33.98576842839543 A 801.2398878621104 801.2398878621104 0 0 0 24.018736134675446,-6.953439040707552 Z M 245.9950272911554,-34.12199357486088 L 245.97680534701217,-33.12215960826859 A 800.2398878621104 800.2398878621104 0 0 1 432.5521299918998,-7.559932630756874 L 431.79801642832786,-4.656260346693669 L 439.4530509153093,-6.284279696432879 L 433.55761474332905,-11.43149567617448 L 432.8035011797571,-8.527823392111275 A 801.2398878621104 801.2398878621104 0 0 0 245.9950272911554,-34.12199357486088"/><text text-anchor="middle" pointer-events="none" font-size="8px" fill="#000000" x="228.3109502799233" y="-30.749087499754523" font-family="sans-serif">followed</text></g><g class="relationship" transform="translate(-37.33926003777277 96.44871995051179) rotate(536.8487915436706)"><path class="outline" fill="#A5ABB6" stroke="none" d="M 24.018736134675446,-6.953439040707552 L 24.277555179777966,-5.987513214418485 A 616.3151646998527 616.3151646998527 0 0 1 163.15987378850662,-26.64251130574371 L 163.1263977603593,-27.64195082644494 A 617.3151646998527 617.3151646998527 0 0 0 24.018736134675446,-6.953439040707552 Z M 198.50136272624025,-27.812663080295465 L 198.47753420885107,-26.81294701972672 A 616.3151646998527 616.3151646998527 0 0 1 337.55273315115807,-7.499314335874969 L 336.80427967620693,-4.594177954251281 L 344.4561269541052,-6.237112291259605 L 338.5506711177596,-11.372829511373219 L 337.80221764280844,-8.46769312974953 A 617.3151646998527 617.3151646998527 0 0 0 198.50136272624025,-27.812663080295465"/><text text-anchor="middle" pointer-events="none" font-size="8px" fill="#000000" x="180.81507002280506" y="-24.48076104136328" transform="rotate(180 180.81507002280506 -27.48076104136328)" font-family="sans-serif">followed</text></g><g class="relationship" transform="translate(17.015381198284746 121.13322286986752) rotate(352.0908850556068)"><path class="outline" fill="#A5ABB6" stroke="none" d="M 24.018736134675446,-6.953439040707552 L 24.277555179777966,-5.987513214418485 A 700.4611428566362 700.4611428566362 0 0 1 184.8803999190937,-29.549518598466875 L 184.85086246423663,-30.549082272657074 A 701.4611428566362 701.4611428566362 0 0 0 24.018736134675446,-6.953439040707552 Z M 220.2235615184246,-30.702079322572672 L 220.20267180505658,-29.702297536443552 A 700.4611428566362 700.4611428566362 0 0 1 381.0033285323217,-7.530454307723466 L 380.25196741393825,-4.626068577524809 L 387.9054554225158,-6.2613426531952125 L 382.00514335683295,-11.402968614655009 L 381.2537822384495,-8.498582884456352 A 701.4611428566362 701.4611428566362 0 0 0 220.2235615184246,-30.702079322572672"/><text text-anchor="middle" pointer-events="none" font-size="8px" fill="#000000" x="202.53841005089734" y="-27.348591139799964" font-family="sans-serif">followed</text></g><g class="relationship" transform="translate(17.015381198284746 121.13322286986752) rotate(180.59922924654484)"><path class="outline" fill="#A5ABB6" stroke="none" d="M 24.018736134675446,-6.953439040707552 L 24.277555179777966,-5.987513214418485 A 720.5543507326146 720.5543507326146 0 0 1 190.06882830233707,-30.242357319527173 L 190.04009776194482,-31.241944512346663 A 721.5543507326146 721.5543507326146 0 0 0 24.018736134675446,-6.953439040707552 Z M 225.41231603038236,-31.391240767533077 L 225.3920243200841,-30.3914466654835 A 720.5543507326146 720.5543507326146 0 0 1 391.3821327756915,-7.5369591180074105 L 390.6301642874941,-4.632730581414938 L 398.28399410910686,-6.26640406831212 L 392.38475742662143,-11.40926383346404 L 391.632788938424,-8.505035296871569 A 721.5543507326146 721.5543507326146 0 0 0 225.41231603038236,-31.391240767533077"/><text text-anchor="middle" pointer-events="none" font-size="8px" fill="#000000" x="207.72740223732524" y="-28.03338480982609" transform="rotate(180 207.72740223732524 -31.03338480982609)" font-family="sans-serif">followed</text></g><g class="relationship" transform="translate(-31.456193881082807 155.8699856060493) rotate(348.6765840485392)"><path class="outline" fill="#A5ABB6" stroke="none" d="M 24.018736134675446,6.953439040707552 L 24.277555179777966,5.987513214418485 A 804.2565864096414 804.2565864096414 0 0 0 211.688104312221,33.12426357641834 L 211.6623085986016,34.12393081163157 A 805.2565864096414 805.2565864096414 0 0 1 24.018736134675446,6.953439040707552 Z M 247.03273110652205,34.259557296312664 L 247.01460240759405,33.25972163467861 A 804.2565864096414 804.2565864096414 0 0 0 434.6277471238538,7.56098477838307 L 433.8735353201255,4.657338010073098 L 441.52862488386506,6.2850983644021 L 435.63336286215815,11.432513802796368 L 434.87915105842984,8.528867034486394 A 805.2565864096414 805.2565864096414 0 0 1 247.03273110652205,34.259557296312664"/><text text-anchor="middle" pointer-events="none" font-size="8px" fill="#000000" x="229.34869230916954" y="36.88597571024491" font-family="sans-serif">followed</text></g><g class="relationship" transform="translate(-31.456193881082807 155.8699856060493) rotate(185.97684567733864)"><path class="outline" fill="#A5ABB6" stroke="none" d="M 24.018736134675446,6.953439040707552 L 24.277555179777966,5.987513214418485 A 630.5933624731433 630.5933624731433 0 0 0 166.84453479146782,27.136500854421342 L 166.8117996034052,28.13596491453677 A 631.5933624731433 631.5933624731433 0 0 1 24.018736134675446,6.953439040707552 Z M 202.18634864150383,28.30338859231358 L 202.16307540525435,27.30365945075846 A 630.5933624731433 630.5933624731433 0 0 0 344.9238550765626,7.505095325116925 L 344.17486180763865,4.600098064686781 L 351.8270142290536,6.241610574366106 L 345.92251276846116,11.37842500569045 L 345.17351949953724,8.473427745260306 A 631.5933624731433 631.5933624731433 0 0 1 202.18634864150383,28.30338859231358"/><text text-anchor="middle" pointer-events="none" font-size="8px" fill="#000000" x="184.50026815344182" y="30.967392797689286" transform="rotate(180 184.50026815344182 27.967392797689286)" font-family="sans-serif">followed</text></g><g class="relationship" transform="translate(60.354894104394674 27.32759417850983) rotate(365.80599838630906)"><path class="outline" fill="#A5ABB6" stroke="none" d="M 24.018736134675446,-6.953439040707552 L 24.277555179777966,-5.987513214418485 A 612.5654042637668 612.5654042637668 0 0 1 162.19227593635492,-26.512723705259532 L 162.1585997409736,-27.512156501331674 A 613.5654042637668 613.5654042637668 0 0 0 24.018736134675446,-6.953439040707552 Z M 197.53367626471936,-27.683753869208545 L 197.50969752017426,-26.684041400640695 A 612.5654042637668 612.5654042637668 0 0 1 335.6170507296634,-7.49775837011778 L 334.86874254171175,-4.592584561918947 L 342.520507646786,-6.235901566263722 L 336.61479498026563,-11.371323447716223 L 335.866486792314,-8.466149639517392 A 613.5654042637668 613.5654042637668 0 0 0 197.53367626471936,-27.683753869208545"/><text text-anchor="middle" pointer-events="none" font-size="8px" fill="#000000" x="179.84732642247334" y="-24.35296054600269" font-family="sans-serif">followed</text></g><g class="relationship" transform="translate(60.354894104394674 27.32759417850983) rotate(529.137040005379)"><path class="outline" fill="#A5ABB6" stroke="none" d="M 24.018736134675446,-6.953439040707552 L 24.277555179777966,-5.987513214418485 A 820.8535871628382 820.8535871628382 0 0 1 215.97588158283327,-33.69500732275617 L 215.95059788362067,-34.6946876389344 A 821.8535871628382 821.8535871628382 0 0 0 24.018736134675446,-6.953439040707552 Z M 251.3206995662735,-34.82789514685817 L 251.30294627905064,-33.828052748880964 A 820.8535871628382 820.8535871628382 0 0 1 443.2045305258136,-7.565236085803151 L 442.44992177349803,-4.6616924524253545 L 450.1052337957477,-6.288406269296442 L 444.21067552890105,-11.436627596973546 L 443.4560667765855,-8.533083963595749 A 821.8535871628382 821.8535871628382 0 0 0 251.3206995662735,-34.82789514685817"/><text text-anchor="middle" pointer-events="none" font-size="8px" fill="#000000" x="233.63681506969536" y="-31.451596143833967" transform="rotate(180 233.63681506969536 -34.45159614383397)" font-family="sans-serif">followed</text></g><g class="relationship" transform="translate(22.839830067666238 180.74488061178317) rotate(343.87604503066905)"><path class="outline" fill="#A5ABB6" stroke="none" d="M 24.018736134675446,-6.953439040707552 L 24.277555179777966,-5.987513214418485 A 713.4949895932243 713.4949895932243 0 0 1 188.2459050641223,-29.998992343314967 L 188.216896111979,-30.998571495106148 A 714.4949895932243 714.4949895932243 0 0 0 24.018736134675446,-6.953439040707552 Z M 223.58928090037335,-31.14914742612507 L 223.56878301859396,-30.149357529775557 A 713.4949895932243 713.4949895932243 0 0 1 387.7356146420679,-7.534709876934914 L 386.9838561706919,-4.630426970482022 L 394.6375678356873,-6.264653928133132 L 388.7379592705692,-11.407087085538771 L 387.9862007991932,-8.502804179085878 A 714.4949895932243 714.4949895932243 0 0 0 223.58928090037335,-31.14914742612507"/><text text-anchor="middle" pointer-events="none" font-size="8px" fill="#000000" x="205.90428495752394" y="-27.792796363955517" font-family="sans-serif">followed</text></g><g class="relationship" transform="translate(22.839830067666238 180.74488061178317) rotate(188.5029048097412)"><path class="outline" fill="#A5ABB6" stroke="none" d="M 24.018736134675446,-6.953439040707552 L 24.277555179777966,-5.987513214418485 A 741.0015906769886 741.0015906769886 0 0 1 195.3492749158255,-30.946964458042203 L 195.3213213936698,-31.946573681988752 A 742.0015906769886 742.0015906769886 0 0 0 24.018736134675446,-6.953439040707552 Z M 230.6930713989451,-32.092282918739556 L 230.67335420118636,-31.09247732157951 A 741.0015906769886 741.0015906769886 0 0 1 401.9448989535035,-7.543263789347601 L 401.19234178496043,-4.639187738677705 L 408.8465025998238,-6.271309737858786 L 402.9483085115609,-11.415365190240795 L 402.19575134301783,-8.5112891395709 A 742.0015906769886 742.0015906769886 0 0 0 230.6930713989451,-32.092282918739556"/><text text-anchor="middle" pointer-events="none" font-size="8px" fill="#000000" x="213.0083876738217" y="-28.73023887517661" transform="rotate(180 213.0083876738217 -31.73023887517661)" font-family="sans-serif">followed</text></g><g class="relationship" transform="translate(5.969323180733217 2.3816546913257537) rotate(368.4183718221888)"><path class="outline" fill="#A5ABB6" stroke="none" d="M 24.018736134675446,-6.953439040707552 L 24.277555179777966,-5.987513214418485 A 723.1002960567647 723.1002960567647 0 0 1 190.72627996119215,-30.33011341251222 L 190.69764852033913,-31.329703448774353 A 724.1002960567647 724.1002960567647 0 0 0 24.018736134675446,-6.953439040707552 Z M 226.06980735582624,-31.478543499417697 L 226.04958899088837,-30.478747911450228 A 723.1002960567647 723.1002960567647 0 0 1 392.69727509489235,-7.53776096789122 L 391.94523173618467,-4.633551817946325 L 399.59910367121506,-6.267027989230749 L 393.69999957316924,-11.410039834484413 L 392.94795621446156,-8.505830684539518 A 724.1002960567647 724.1002960567647 0 0 0 226.06980735582624,-31.478543499417697"/><text text-anchor="middle" pointer-events="none" font-size="8px" fill="#000000" x="208.3849228401476" y="-28.120152422955698" font-family="sans-serif">followed</text></g><g class="relationship" transform="translate(5.969323180733217 2.3816546913257537) rotate(524.4693415509836)"><path class="outline" fill="#A5ABB6" stroke="none" d="M 24.018736134675446,-6.953439040707552 L 24.277555179777966,-5.987513214418485 A 729.3095846830737 729.3095846830737 0 0 1 192.32977316056827,-30.544112792031115 L 192.30138056468599,-31.54370964101531 A 730.3095846830737 730.3095846830737 0 0 0 24.018736134675446,-6.953439040707552 Z M 227.67339581091932,-31.69144863649285 L 227.65335413182004,-30.69164949111473 A 729.3095846830737 729.3095846830737 0 0 1 395.90483736856834,-7.53969623199448 L 395.1526133100714,-4.635533880159027 L 402.80658686593387,-6.26853382080758 L 396.90780277989757,-11.411912701108417 L 396.1555787214006,-8.507750349272964 A 730.3095846830737 730.3095846830737 0 0 0 227.67339581091932,-31.69144863649285"/><text text-anchor="middle" pointer-events="none" font-size="8px" fill="#000000" x="209.98858193659566" y="-28.331769015498594" transform="rotate(180 209.98858193659566 -31.331769015498594)" font-family="sans-serif">followed</text></g><g class="relationship" transform="translate(-42.79302651813563 36.89300970470587) rotate(363.3669432309647)"><path class="outline" fill="#A5ABB6" stroke="none" d="M 24.018736134675446,-6.953439040707552 L 24.277555179777966,-5.987513214418485 A 810.2184611533722 810.2184611533722 0 0 1 213.22830051644638,-33.329306464924684 L 213.20269109861857,-34.32897849000017 A 811.2184611533722 811.2184611533722 0 0 0 24.018736134675446,-6.953439040707552 Z M 248.5729971328394,-34.463726017617205 L 248.55500509467478,-33.46388788743684 A 810.2184611533722 810.2184611533722 0 0 1 437.70858676060203,-7.5625295372011445 L 436.9542307211803,-4.6589202374178615 L 444.60940113333334,-6.286300328514332 L 438.71439481316435,-11.434008603578855 L 437.9600387737426,-8.530399303795573 A 811.2184611533722 811.2184611533722 0 0 0 248.5729971328394,-34.463726017617205"/><text text-anchor="middle" pointer-events="none" font-size="8px" fill="#000000" x="230.88901442219236" y="-31.0891547972343" font-family="sans-serif">followed</text></g><g class="relationship" transform="translate(-42.79302651813563 36.89300970470587) rotate(527.5868927570983)"><path class="outline" fill="#A5ABB6" stroke="none" d="M 24.018736134675446,-6.953439040707552 L 24.277555179777966,-5.987513214418485 A 621.4871563875861 621.4871563875861 0 0 1 164.49451834026482,-26.821487185234673 L 164.46131451780906,-27.820935786301447 A 622.4871563875861 622.4871563875861 0 0 0 24.018736134675446,-6.953439040707552 Z M 199.8361272160681,-27.99044204669815 L 199.81250285767663,-26.99072114079968 A 621.4871563875861 621.4871563875861 0 0 1 340.2226838648252,-7.501434368171309 L 339.4740324338279,-4.5963489933732244 L 347.1259916445203,-6.238761924977346 L 341.2208857728216,-11.374881534568756 L 340.4722343418243,-8.46979615977067 A 622.4871563875861 622.4871563875861 0 0 0 199.8361272160681,-27.99044204669815"/><text text-anchor="middle" pointer-events="none" font-size="8px" fill="#000000" x="182.14991235180645" y="-24.657034064839877" transform="rotate(180 182.14991235180645 -27.657034064839877)" font-family="sans-serif">followed</text></g><g class="relationship" transform="translate(71.55922283394368 146.22059140374213) rotate(346.97706993191196)"><path class="outline" fill="#A5ABB6" stroke="none" d="M 24.018736134675446,6.953439040707552 L 24.277555179777966,5.987513214418485 A 605.2997587254603 605.2997587254603 0 0 0 160.317519626328,26.261175263169093 L 160.2834486708877,27.260594679628184 A 606.2997587254603 606.2997587254603 0 0 1 24.018736134675446,6.953439040707552 Z M 195.6587441779522,27.433933373663535 L 195.63446891933262,26.434228061174508 A 605.2997587254603 605.2997587254603 0 0 0 331.86657772955823,7.494697216818286 L 331.1185553745842,4.589449799392508 L 338.77015876271406,6.2335196247832565 L 332.86394086952356,11.368360440052658 L 332.11591851454955,8.46311302262688 A 606.2997587254603 606.2997587254603 0 0 1 195.6587441779522,27.433933373663535"/><text text-anchor="middle" pointer-events="none" font-size="8px" fill="#000000" x="177.97228190006751" y="30.105329866579268" font-family="sans-serif">followed</text></g><g class="relationship" transform="translate(71.55922283394368 146.22059140374213) rotate(183.53959525561277)"><path class="outline" fill="#A5ABB6" stroke="none" d="M 24.018736134675446,6.953439040707552 L 24.277555179777966,5.987513214418485 A 827.8531897938592 827.8531897938592 0 0 0 217.78428970901882,33.93565162372329 L 217.75921589424806,34.93533722620691 A 828.8531897938592 828.8531897938592 0 0 1 24.018736134675446,6.953439040707552 Z M 253.12918542026924,35.06755018696492 L 253.11158585215202,34.06770507135843 A 827.8531897938592 827.8531897938592 0 0 0 446.8218502408461,7.566983964607783 L 446.06707828769794,4.66348275077285 L 453.7224817319856,6.289766276234589 L 447.82821284504365,11.438318916387693 L 447.0734408918955,8.534817702552761 A 828.8531897938592 828.8531897938592 0 0 1 253.12918542026924,35.06755018696492"/><text text-anchor="middle" pointer-events="none" font-size="8px" fill="#000000" x="235.4453643124079" y="37.690139527851215" transform="rotate(180 235.4453643124079 34.690139527851215)" font-family="sans-serif">followed</text></g><g class="relationship" transform="translate(66.00888916975926 86.66426091835403) rotate(356.4572919186619)"><path class="outline" fill="#A5ABB6" stroke="none" d="M 24.018736134675446,-6.953439040707552 L 24.277555179777966,-5.987513214418485 A 599.2969694159659 599.2969694159659 0 0 1 158.76870979550364,-26.05327923774496 L 158.73430562562868,-27.052687239061356 A 600.2969694159659 600.2969694159659 0 0 0 24.018736134675446,-6.953439040707552 Z M 194.10978491471957,-27.227491395621314 L 194.08525911977478,-26.2277921981713 A 599.2969694159659 599.2969694159659 0 0 1 328.7681468977234,-7.492120986111123 L 328.020365096792,-4.586811643167455 L 335.67183233141384,-6.231515007761762 L 329.76518929896525,-11.365866776702681 L 329.01740749803383,-8.460557433759012 A 600.2969694159659 600.2969694159659 0 0 0 194.10978491471957,-27.227491395621314"/><text text-anchor="middle" pointer-events="none" font-size="8px" fill="#000000" x="176.42322799098244" y="-23.900739657226268" font-family="sans-serif">followed</text></g><g class="relationship" transform="translate(66.00888916975926 86.66426091835403) rotate(536.3529202594572)"><path class="outline" fill="#A5ABB6" stroke="none" d="M 24.018736134675446,-6.953439040707552 L 24.277555179777966,-5.987513214418485 A 817.1989871137449 817.1989871137449 0 0 1 215.03170371947158,-33.569349170048326 L 215.00630903189722,-34.56902667296765 A 818.1989871137449 818.1989871137449 0 0 0 24.018736134675446,-6.953439040707552 Z M 250.37648044853856,-34.70275940719978 L 250.3586458337382,-33.70291845659062 A 817.1989871137449 817.1989871137449 0 0 1 441.31590850108086,-7.564313015934162 L 440.56138593659375,-4.660746984365429 L 448.2166496688224,-6.287688037392372 L 442.32193858706364,-11.43573439135914 L 441.56741602257654,-8.532168359790406 A 818.1989871137449 818.1989871137449 0 0 0 250.37648044853856,-34.70275940719978"/><text text-anchor="middle" pointer-events="none" font-size="8px" fill="#000000" x="232.69256246388284" y="-31.327048788650245" transform="rotate(180 232.69256246388284 -34.327048788650245)" font-family="sans-serif">followed</text></g></g><g class="layer nodes"><g class="node" transform="translate(425.20390244130544,64.42619611462005)"><circle class="outline" cx="0" cy="0" r="25" fill="#D9C8AE" stroke="#c0a378" stroke-width="2px"/><text text-anchor="middle" pointer-events="none" font-family="sans-serif" dy="1.5625" font-size="25" fill="#604A0E"/><text text-anchor="middle" pointer-events="none" y="5" font-size="10px" fill="#604A0E" font-family="sans-serif"> ribakit13…</text></g><g class="node" transform="translate(11.393568171548923,61.94751424390222)"><circle class="outline" cx="0" cy="0" r="25" fill="#D9C8AE" stroke="#c0a378" stroke-width="2px"/><text text-anchor="middle" pointer-events="none" font-family="sans-serif" dy="1.5625" font-size="25" fill="#604A0E"/><text text-anchor="middle" pointer-events="none" y="5" font-size="10px" fill="#604A0E" font-family="sans-serif"> tapoche…</text></g><g class="node" transform="translate(-405.44741168922553,116.71472479523469)"><circle class="outline" cx="0" cy="0" r="25" fill="#D9C8AE" stroke="#c0a378" stroke-width="2px"/><text text-anchor="middle" pointer-events="none" font-family="sans-serif" dy="1.5625" font-size="25" fill="#604A0E"/><text text-anchor="middle" pointer-events="none" y="5" font-size="10px" fill="#604A0E" font-family="sans-serif"> dmitriyg…</text></g><g class="node" transform="translate(-37.33926003777277,96.44871995051179)"><circle class="outline" cx="0" cy="0" r="25" fill="#D9C8AE" stroke="#c0a378" stroke-width="2px"/><text text-anchor="middle" pointer-events="none" font-family="sans-serif" dy="1.5625" font-size="25" fill="#604A0E"/><text text-anchor="middle" pointer-events="none" y="5" font-size="10px" fill="#604A0E" font-family="sans-serif"> olgalakh…</text></g><g class="node" transform="translate(17.015381198284746,121.13322286986752)"><circle class="outline" cx="0" cy="0" r="25" fill="#D9C8AE" stroke="#c0a378" stroke-width="2px"/><text text-anchor="middle" pointer-events="none" font-family="sans-serif" dy="1.5625" font-size="25" fill="#604A0E"/><text text-anchor="middle" pointer-events="none" y="5" font-size="10px" fill="#604A0E" font-family="sans-serif"> andru_s…</text></g><g class="node" transform="translate(-31.456193881082807,155.8699856060493)"><circle class="outline" cx="0" cy="0" r="25" fill="#D9C8AE" stroke="#c0a378" stroke-width="2px"/><text text-anchor="middle" pointer-events="none" font-family="sans-serif" dy="1.5625" font-size="25" fill="#604A0E"/><text text-anchor="middle" pointer-events="none" y="5" font-size="10px" fill="#604A0E" font-family="sans-serif"> akperov…</text></g><g class="node" transform="translate(60.354894104394674,27.32759417850983)"><circle class="outline" cx="0" cy="0" r="25" fill="#D9C8AE" stroke="#c0a378" stroke-width="2px"/><text text-anchor="middle" pointer-events="none" font-family="sans-serif" dy="1.5625" font-size="25" fill="#604A0E"/><text text-anchor="middle" pointer-events="none" y="5" font-size="10px" fill="#604A0E" font-family="sans-serif"> vkrenev</text></g><g class="node" transform="translate(22.839830067666238,180.74488061178317)"><circle class="outline" cx="0" cy="0" r="25" fill="#D9C8AE" stroke="#c0a378" stroke-width="2px"/><text text-anchor="middle" pointer-events="none" font-family="sans-serif" dy="1.5625" font-size="25" fill="#604A0E"/><text text-anchor="middle" pointer-events="none" y="5" font-size="10px" fill="#604A0E" font-family="sans-serif"> ninasyrnik</text></g><g class="node" transform="translate(5.969323180733217,2.3816546913257537)"><circle class="outline" cx="0" cy="0" r="25" fill="#D9C8AE" stroke="#c0a378" stroke-width="2px"/><text text-anchor="middle" pointer-events="none" font-family="sans-serif" dy="1.5625" font-size="25" fill="#604A0E"/><text text-anchor="middle" pointer-events="none" y="5" font-size="10px" fill="#604A0E" font-family="sans-serif"> m_mius</text></g><g class="node" transform="translate(-42.79302651813563,36.89300970470587)"><circle class="outline" cx="0" cy="0" r="25" fill="#D9C8AE" stroke="#c0a378" stroke-width="2px"/><text text-anchor="middle" pointer-events="none" font-family="sans-serif" dy="1.5625" font-size="25" fill="#604A0E"/><text text-anchor="middle" pointer-events="none" y="5" font-size="10px" fill="#604A0E" font-family="sans-serif"> dmitriyra…</text></g><g class="node" transform="translate(71.55922283394368,146.22059140374213)"><circle class="outline" cx="0" cy="0" r="25" fill="#D9C8AE" stroke="#c0a378" stroke-width="2px"/><text text-anchor="middle" pointer-events="none" font-family="sans-serif" dy="1.5625" font-size="25" fill="#604A0E"/><text text-anchor="middle" pointer-events="none" y="5" font-size="10px" fill="#604A0E" font-family="sans-serif"> mr.zhirkin</text></g><g class="node" transform="translate(66.00888916975926,86.66426091835403)"><circle class="outline" cx="0" cy="0" r="25" fill="#D9C8AE" stroke="#c0a378" stroke-width="2px"/><text text-anchor="middle" pointer-events="none" font-family="sans-serif" dy="1.5625" font-size="25" fill="#604A0E"/><text text-anchor="middle" pointer-events="none" y="5" font-size="10px" fill="#604A0E" font-family="sans-serif"> _i.bad_</text></g></g></svg>